<?xml version="1.0" encoding="UTF-8"?>
<svg width="24px" height="24px" viewBox="0 0 24 24" version="1.1" xmlns="http://www.w3.org/2000/svg" xmlns:xlink="http://www.w3.org/1999/xlink">
    <title>Drone Icon</title>
    <g id="drone-icon" stroke="none" stroke-width="1" fill="currentColor" fill-rule="evenodd">
        <path d="M12,2 C12.5522847,2 13,2.44771525 13,3 L13,5 L15,5 C15.5522847,5 16,5.44771525 16,6 C16,6.55228475 15.5522847,7 15,7 L13,7 L13,9 C13,9.55228475 12.5522847,10 12,10 C11.4477153,10 11,9.55228475 11,9 L11,7 L9,7 C8.44771525,7 8,6.55228475 8,6 C8,5.44771525 8.44771525,5 9,5 L11,5 L11,3 C11,2.44771525 11.4477153,2 12,2 Z" id="Propeller-1"></path>
        <path d="M19,9 C19.5522847,9 20,9.44771525 20,10 L20,12 L22,12 C22.5522847,12 23,12.4477153 23,13 C23,13.5522847 22.5522847,14 22,14 L20,14 L20,16 C20,16.5522847 19.5522847,17 19,17 C18.4477153,17 18,16.5522847 18,16 L18,14 L16,14 C15.4477153,14 15,13.5522847 15,13 C15,12.4477153 15.4477153,12 16,12 L18,12 L18,10 C18,9.44771525 18.4477153,9 19,9 Z" id="Propeller-2"></path>
        <path d="M5,9 C5.55228475,9 6,9.44771525 6,10 L6,12 L8,12 C8.55228475,12 9,12.4477153 9,13 C9,13.5522847 8.55228475,14 8,14 L6,14 L6,16 C6,16.5522847 5.55228475,17 5,17 C4.44771525,17 4,16.5522847 4,16 L4,14 L2,14 C1.44771525,14 1,13.5522847 1,13 C1,12.4477153 1.44771525,12 2,12 L4,12 L4,10 C4,9.44771525 4.44771525,9 5,9 Z" id="Propeller-3"></path>
        <path d="M12,14 C12.5522847,14 13,14.4477153 13,15 L13,17 L15,17 C15.5522847,17 16,17.4477153 16,18 C16,18.5522847 15.5522847,19 15,19 L13,19 L13,21 C13,21.5522847 12.5522847,22 12,22 C11.4477153,22 11,21.5522847 11,21 L11,19 L9,19 C8.44771525,19 8,18.5522847 8,18 C8,17.4477153 8.44771525,17 9,17 L11,17 L11,15 C11,14.4477153 11.4477153,14 12,14 Z" id="Propeller-4"></path>
        <circle id="Body" cx="12" cy="12" r="3"></circle>
    </g>
</svg>
